<?xml version="1.0" encoding="utf-8"?>
<!-- Generator: Adobe Illustrator 16.0.0, SVG Export Plug-In . SVG Version: 6.00 Build 0)  -->
<!DOCTYPE svg PUBLIC "-//W3C//DTD SVG 1.1//EN" "http://www.w3.org/Graphics/SVG/1.1/DTD/svg11.dtd">
<svg version="1.1" id="Capa_1" xmlns="http://www.w3.org/2000/svg" xmlns:xlink="http://www.w3.org/1999/xlink" x="0px" y="0px"
	 width="320px" height="180px" viewBox="0 0 320 180" enable-background="new 0 0 320 180" xml:space="preserve">
<g>
	<rect fill="none" width="320" height="180"/>
	<g>
		<g>
			<path d="M179.2,54.5c-0.7-1.1-2-1.8-3.8-1.8c-1.9,0.1-3.4,0.7-4.5,1.9c-1.1,1.2-1.7,2.5-1.9,4.1h11.3
				C180.3,57.1,179.9,55.7,179.2,54.5z"/>
			<path d="M223.9,54.5c-0.7-1.1-2-1.8-3.8-1.8c-1.9,0.1-3.4,0.7-4.5,1.9c-1.1,1.2-1.7,2.5-1.9,4.1h11.3
				C225,57.1,224.6,55.7,223.9,54.5z"/>
			<path d="M293.3,38.4c-3.2-30.4-37.9-4.2-95-2.8c-61.2,1.6-75.4,57.9-70.5,74.1c11.1,37.2,56.8-22.4,116.6,24.2
				C286.6,167,296.4,68.8,293.3,38.4z M257,41c0.5-0.6,1.2-0.8,2.1-0.9c0.8,0,1.6,0.3,2.1,0.9c0.5,0.6,0.8,1.3,0.8,2.1
				c0,0.8-0.3,1.5-0.8,2.1c-0.5,0.6-1.3,0.8-2.1,0.9c-0.8,0-1.5-0.3-2.1-0.9c-0.5-0.6-0.8-1.3-0.8-2.1C256.2,42.2,256.4,41.5,257,41
				z M185.8,68c-1.2,1.8-2.8,3.3-4.5,4.5c-1.8,1.2-3.9,1.8-6.2,1.8c-2.3,0-4.2-0.5-5.7-1.5c-1.5-1-2.7-2.4-3.4-4.1
				c-0.8-1.7-1.1-3.7-1.2-5.8c0-2.2,0.5-4.2,1.5-6c1-1.8,2.3-3.3,4-4.3c1.7-1.1,3.7-1.6,5.9-1.7c2.9,0,5.2,0.9,6.8,2.6
				c1.6,1.7,2.4,4,2.5,6.8l0,0.3H169c0,1.8,0.3,3.5,0.8,5c0.6,1.6,1.5,2.9,2.8,3.9c1.3,1,2.9,1.5,5.1,1.5c1.3,0,2.6-0.4,3.8-1.2
				c1.2-0.8,2.3-1.6,3.1-2.6l0.2-0.2l1.2,0.8L185.8,68z M207.8,53.5c-0.5,0.3-0.9,1.2-1.3,2.1L200,73.8l-4.3,0l-6.2-16.7
				c-0.4-1.3-1-2.3-1.5-3c-0.6-0.7-1.4-1.3-2.5-1.4l-0.3,0v-1.6c0,0,10,0,10.3,0l0.3,0v1.6l-0.3,0c-0.9,0.1-1.5,0.2-1.8,0.4
				c-0.3,0.2-0.4,0.5-0.4,0.9c0,0.2,0.1,0.5,0.2,0.9c0.1,0.4,4.4,12,5.5,15.2c1.2-3.2,5.2-14.5,5.3-14.9c0.2-0.5,0.2-1,0.2-1.3
				c0-0.3-0.1-0.6-0.5-0.9c-0.3-0.2-1-0.4-1.9-0.4l-0.3,0v-1.6l0.3,0c0.3,0,7.4,0,7.4,0v1.6l-0.3,0
				C208.7,52.9,208.2,53.1,207.8,53.5z M230.5,68c-1.2,1.8-2.8,3.3-4.5,4.5c-1.8,1.2-3.9,1.8-6.2,1.8c-2.3,0-4.2-0.5-5.7-1.5
				c-1.5-1-2.7-2.4-3.4-4.1c-0.8-1.7-1.1-3.7-1.1-5.8c0-2.2,0.5-4.2,1.5-6c1-1.8,2.3-3.3,4-4.3c1.7-1.1,3.7-1.6,5.9-1.7
				c2.9,0,5.2,0.9,6.8,2.6c1.6,1.7,2.4,4,2.5,6.8l0,0.3h-16.5c0,1.8,0.3,3.5,0.8,5c0.6,1.6,1.5,2.9,2.8,3.9c1.3,1,3,1.5,5.1,1.5
				c1.3,0,2.6-0.4,3.8-1.2c1.2-0.8,2.3-1.6,3.1-2.6l0.2-0.2l1.2,0.8L230.5,68z M250.7,56.2h-3.2l-0.1-0.3c-0.1-0.6-0.3-1.1-0.6-1.6
				c-0.3-0.5-0.8-0.8-1.4-0.8c-1.2,0.1-2.3,0.5-3.3,1.3c-1,0.8-1.9,1.5-2.7,2.4l0,12.8c0,0.7,0.1,1.1,0.2,1.4
				c0.2,0.3,0.5,0.5,1.1,0.7c0.6,0.1,1.5,0.2,2.8,0.2h0.3l0,1.6h-13v-1.6h0.3c1.7,0,2.6-0.2,3-0.4c0.4-0.3,0.6-0.9,0.5-1.8V55.8
				c0.1-1-0.1-1.5-0.5-1.8c-0.4-0.3-1.4-0.5-3-0.5l-0.3,0v-1.6l0.3,0c1.3-0.1,2.6-0.2,3.8-0.4c1.2-0.1,2.3-0.3,3.4-0.6l0.4-0.1
				l0.4,4.5c1.1-1.1,2.3-2.1,3.6-3c1.4-0.9,3.1-1.4,4.8-1.5c0.4,0,0.9,0.1,1.4,0.2c0.5,0.1,1,0.3,1.4,0.4l0.2,0.1L250.7,56.2z
				 M265.1,73.9h-12.4l0-1.6l0.3,0c1.8-0.1,2.8-0.3,3.3-0.8c0.4-0.5,0.7-1.5,0.6-3.1V56.4c0-1.3-0.2-2.1-0.6-2.5
				c-0.5-0.3-1.5-0.5-3.1-0.5l-0.3,0v-1.6l0.3,0c2.7-0.2,5.4-0.5,8-0.9l0.4-0.1c0,0-0.1,15.3-0.1,17.7c-0.1,1.6,0.2,2.6,0.6,3.1
				c0.4,0.4,1.3,0.7,2.8,0.8l0.3,0V73.9z M283.5,71.2c-0.8,1.1-1.8,1.9-3.1,2.4c-1.3,0.5-2.7,0.8-4.2,0.8c-1.6,0-3.2-0.2-4.8-0.6
				c-1.6-0.4-2.9-0.9-4-1.5l-0.2-4.8l2.5,0l0,0.3c0.3,1.8,1,3,2,3.7c1,0.7,2.5,1.1,4.3,1.1c0.7,0,1.4-0.1,2.2-0.4
				c0.7-0.2,1.4-0.6,1.9-1.1c0.5-0.5,0.7-1.1,0.8-1.9c0-1-0.5-1.7-1.3-2.4c-0.9-0.6-2-1.2-3.2-1.7c-1.3-0.5-2.6-1.1-3.9-1.7
				c-1.3-0.6-2.4-1.4-3.3-2.4c-0.9-1-1.4-2.3-1.4-3.8c0-1.4,0.5-2.6,1.4-3.5c0.9-0.9,1.9-1.6,3.2-2c1.3-0.4,2.5-0.6,3.8-0.6
				c1.2,0,2.5,0.2,3.7,0.5c1.2,0.3,2.3,0.7,3.5,1.1l0.2,0.1v4.3h-2.2l-0.1-0.3c-0.3-1.3-0.9-2.2-1.8-3c-0.9-0.7-2.1-1.1-3.5-1.1
				c-1.1,0-2.1,0.3-3,0.8c-0.8,0.5-1.3,1.4-1.4,2.5c0,0.8,0.5,1.5,1.3,2.1c0.9,0.6,2,1.2,3.3,1.7c1.3,0.6,2.6,1.1,3.9,1.8
				c1.3,0.6,2.4,1.4,3.3,2.3c0.9,0.9,1.4,2.1,1.4,3.4C284.6,68.7,284.2,70.1,283.5,71.2z"/>
		</g>
		<path d="M30.3,148.5c-1.7,0-2.7,0.4-2.7,1.5c0,1,0.7,1.3,1.7,1.3c1.5,0,2.3-1.1,2.3-2.3v-0.5H30.3z M26.5,145.4
			c0.8-0.8,2-1.2,3.1-1.2c2.3,0,3.3,1.1,3.3,3.3v3.3c0,0.4,0,0.9,0.1,1.3h-1.2c-0.1-0.3-0.1-0.8-0.1-1.2h0c-0.5,0.8-1.4,1.4-2.6,1.4
			c-1.6,0-2.9-0.8-2.9-2.3c0-2.6,3-2.7,4.9-2.7h0.5v-0.2c0-1.1-0.7-1.7-1.9-1.7c-0.8,0-1.7,0.3-2.3,0.8L26.5,145.4z"/>
		<path d="M35.3,146.3c0-0.7-0.1-1.3-0.1-1.8h1.2c0,0.4,0,0.8,0,1.3h0c0.4-0.8,1.3-1.5,2.6-1.5c2,0,3,1.3,3,3.2v4.8h-1.3v-4.7
			c0-1.3-0.6-2.1-1.8-2.1c-1.7,0-2.4,1.2-2.4,3v3.8h-1.3V146.3z"/>
		<polygon points="48.8,140.4 52.3,140.4 57.3,148.6 57.3,148.6 57.3,140.4 59.9,140.4 59.9,152.2 56.5,152.2 51.4,143.8 
			51.4,143.8 51.4,152.2 48.8,152.2 		"/>
		<polygon points="64.5,142.7 61.1,142.7 61.1,140.4 70.4,140.4 70.4,142.7 67,142.7 67,152.2 64.5,152.2 		"/>
		<polygon points="73.9,142.7 70.5,142.7 70.5,140.4 79.8,140.4 79.8,142.7 76.5,142.7 76.5,152.2 73.9,152.2 		"/>
		<path d="M88.4,149.8h1.3c2.4,0,4.2-0.9,4.2-3.6c0-2.3-1.8-3.4-4-3.4h-1.5V149.8z M85.8,140.4h3.9c3.8,0,7,1.6,7,5.9
			c0,3.8-3.1,5.8-6.6,5.8h-4.2V140.4z"/>
		<path d="M103.2,143.9l-1.4,3.7h2.9L103.2,143.9z M102.2,140.4h2.1l5.1,11.8h-2.9l-1-2.5h-4.6l-1,2.5h-2.8L102.2,140.4z"/>
		<polygon points="111.2,142.7 107.9,142.7 107.9,140.4 117.2,140.4 117.2,142.7 113.8,142.7 113.8,152.2 111.2,152.2 		"/>
		<path d="M121.6,143.9l-1.4,3.7h2.9L121.6,143.9z M120.6,140.4h2.1l5.1,11.8h-2.9l-1-2.5h-4.6l-1,2.5h-2.9L120.6,140.4z"/>
		<path d="M148.6,151.2c1.7,0,2.8-1.3,2.8-2.9c0-1.6-1.1-2.9-2.8-2.9c-1.7,0-2.7,1.3-2.7,2.9C145.8,149.9,146.9,151.2,148.6,151.2
			 M148.6,144.2c2.4,0,4.1,1.7,4.1,4.1c0,2.4-1.8,4.1-4.1,4.1c-2.4,0-4.1-1.7-4.1-4.1C144.4,145.9,146.2,144.2,148.6,144.2"/>
		<path d="M154.6,146.3c0-0.7-0.1-1.3-0.1-1.8h1.2c0,0.4,0,0.8,0,1.3h0c0.4-0.8,1.3-1.5,2.6-1.5c1.7,0,2.2,0.9,2.5,1.5
			c0.6-0.9,1.3-1.5,2.5-1.5c2.2,0,3,1.2,3,3.3v4.7H165v-4.6c0-1.1-0.4-2.1-1.9-2.1c-1.1,0-2,0.9-2,2.3v4.5h-1.3v-4.4
			c0-1.7-0.4-2.4-1.5-2.4c-1.7,0-2.4,1.2-2.4,3v3.8h-1.3V146.3z"/>
		<path d="M172.3,151.2c1.7,0,2.8-1.3,2.8-2.9c0-1.6-1.1-2.9-2.8-2.9c-1.7,0-2.8,1.3-2.8,2.9C169.5,149.9,170.6,151.2,172.3,151.2
			 M168.3,144.4h1.3v1.1h0c0.7-0.8,1.7-1.3,2.8-1.3c2.4,0,4.1,1.7,4.1,4.1c0,2.3-1.7,4.1-3.9,4.1c-1.4,0-2.5-0.7-3-1.6h0v5.2h-1.3
			V144.4z"/>
		<path d="M181.9,148.5c-1.6,0-2.7,0.4-2.7,1.5c0,1,0.7,1.3,1.7,1.3c1.5,0,2.3-1.1,2.3-2.3v-0.5H181.9z M178.1,145.4
			c0.8-0.8,2-1.2,3.1-1.2c2.3,0,3.3,1.1,3.3,3.3v3.3c0,0.4,0,0.9,0.1,1.3h-1.2c-0.1-0.3-0.1-0.8-0.1-1.2h0c-0.5,0.8-1.4,1.4-2.6,1.4
			c-1.6,0-2.9-0.8-2.9-2.3c0-2.6,3-2.7,4.9-2.7h0.5v-0.2c0-1.1-0.7-1.7-1.9-1.7c-0.8,0-1.7,0.3-2.3,0.8L178.1,145.4z"/>
		<path d="M186.6,146.3c0-0.7-0.1-1.3-0.1-1.8h1.2c0,0.4,0,0.8,0,1.3h0c0.3-0.8,1.3-1.5,2.6-1.5c2,0,3,1.3,3,3.2v4.8h-1.3v-4.7
			c0-1.3-0.6-2.1-1.8-2.1c-1.7,0-2.4,1.2-2.4,3v3.8h-1.3V146.3z"/>
		<path d="M198.6,154c-0.5,1.3-1,2.2-2.6,2.2c-0.4,0-0.8,0-1.2-0.2l0.2-1.1c0.3,0.1,0.5,0.1,0.9,0.1c0.9,0,1.2-0.5,1.5-1.3l0.5-1.5
			l-3.2-7.8h1.5l2.4,6.1h0l2.3-6.1h1.4L198.6,154z"/>
		<path d="M141.9,142.8c-0.7-0.9-1.8-1.4-2.9-1.4c-2.6,0-4.5,2.3-4.5,4.8c0,2.7,1.8,4.9,4.5,4.9c1.4,0,2.6-0.6,3.4-1.6l1,0.9
			c-1,1.4-2.6,2-4.4,2c-3.3,0-5.9-2.6-5.9-6.1c0-3.4,2.5-6.1,5.9-6.1c1.6,0,3.1,0.5,4.1,1.8L141.9,142.8z"/>
	</g>
</g>
</svg>
